<?xml version="1.0" standalone="no"?><!-- Generator: Gravit.io --><svg xmlns="http://www.w3.org/2000/svg" xmlns:xlink="http://www.w3.org/1999/xlink" style="isolation:isolate" width="238.0542993292479" height="198"><g transform="translate(-549.4457006707521,-465)"><rect x="552.4457006707522" y="468.00000000000006" width="191.99999999999977" height="191.99999999999983" transform="matrix(6.733150184454039e-16,-1,1,5.362916140396926e-16,84.44570067075165,1212.4457006707516)" fill="rgb(70,70,70)" stroke-width="6" stroke="rgb(64,255,64)" stroke-linejoin="miter" stroke-linecap="square"/><circle vector-effect="non-scaling-stroke" cx="0" cy="0" r="1" fill="rgb(232,232,232)" transform="matrix(5.105158707011697,0,0,5.105158707011697,648.4457006707521,626.1051587070117)" stroke-width="0" stroke="rgb(93,93,93)"/><line x1="647.7226769331314" y1="573.346162650568" x2="648.4457006707521" y2="615.5302333263837" stroke-width="7" stroke="rgb(64,255,64)" stroke-linejoin="miter" stroke-linecap="square"/><path d=" M 654.607062684858 513.2040375630993 Q 662.1633551412997 568.998292482323 628.7288901052084 593.0574227338659 L 633.2154387512205 626.1852615921553" fill="rgba(0,0,0,0)" stroke-width="7" stroke="rgb(64,255,64)" stroke-linejoin="miter" stroke-linecap="square"/><path d=" M 636.2550205407756 514.6582178662807 Q 631.9942503417003 570.8003791623091 666.7862291588788 592.8508533226384 L 664.2563968531779 626.1852615921553" fill="rgba(0,0,0,0)" stroke-width="7" stroke="rgb(64,255,64)" stroke-linejoin="miter" stroke-linecap="square"/><circle vector-effect="non-scaling-stroke" cx="0" cy="0" r="1" fill="rgb(232,232,232)" transform="matrix(22.855171642347067,-0.6728795631481256,0.7002886324540363,23.78615397239836,645.8660851582446,510.79583743620645)" stroke-width="0" stroke="rgb(93,93,93)"/><circle vector-effect="non-scaling-stroke" cx="0" cy="0" r="1" fill="rgb(255,255,255)" transform="matrix(5.105158707011697,0,0,5.105158707011697,661.6810704518671,636.1051587070117)" stroke-width="0" stroke="rgb(93,93,93)"/><circle vector-effect="non-scaling-stroke" cx="0" cy="0" r="1" fill="rgb(232,232,232)" transform="matrix(5.105158707011697,0,0,5.105158707011697,636.1051587070117,637.1051587070117)" stroke-width="0" stroke="rgb(93,93,93)"/></g></svg>